{
  "source": "C:\\Users\\Peter\\Desktop\\stuff\\MIUN\\quantitative_research\\video_compression\\videos\\UVG\\YachtRide_1920x1080_120fps_420_8bit_YUV.y4m",
  "output": "C:\\Users\\Peter\\Desktop\\stuff\\MIUN\\quantitative_research\\video_compression\\compressed_videos\\UVG\\av1\\2.5\\YachtRide_1920x1080_120fps_420_8bit_YUV_av1.mkv",
  "codec": "av1",
  "ok": "[yuv4mpegpipe @ 0000029131f85380] Stream #0: not enough frames to estimate rate; consider increasing probesize\nInput #0, yuv4mpegpipe, from 'C:\\Users\\Peter\\Desktop\\stuff\\MIUN\\quantitative_research\\video_compression\\videos\\UVG\\YachtRide_1920x1080_120fps_420_8bit_YUV.y4m':\n  Duration: 00:00:05.00, start: 0.000000, bitrate: 2985989 kb/s\n  Stream #0:0: Video: rawvideo (I420 / 0x30323449), yuv420p(progressive), 1920x1080, 120 fps, 120 tbr, 120 tbn\n[out#0/matroska @ 0000029131f890c0] Codec AVOption b:a (set bitrate (in bits/s)) has not been used for any stream. The most likely reason is either wrong type (e.g. a video option with no video streams) or that it is a private option of some decoder which was not actually used for any stream.\nStream mapping:\n  Stream #0:0 -> #0:0 (rawvideo (native) -> av1 (libsvtav1))\nPress [q] to stop, [?] for help\nSvt[info]: -------------------------------------------\nSvt[info]: SVT [version]:\tSVT-AV1 Encoder Lib v3.1.0-19-g6ecfe8ec\nSvt[info]: SVT [build]  :\tGCC 15.2.0\t 64 bit\nSvt[info]: LIB Build date: Aug 17 2025 11:37:13\nSvt[info]: -------------------------------------------\n[libsvtav1 @ 0000029131f8c1c0] Specified chroma sample location center is unsupported on the AV1 bit stream level. Usage of a container that allows passing this information - such as Matroska - is recommended.\nSvt[info]: Level of Parallelism: 5\nSvt[info]: Number of PPCS 93\nSvt[info]: [asm level on system : up to avx2]\nSvt[info]: [asm level selected : up to avx2]\nSvt[info]: -------------------------------------------\nSvt[info]: SVT [config]: main profile\ttier (auto)\tlevel (auto)\nSvt[info]: SVT [config]: width / height / fps numerator / fps denominator \t\t: 1920 / 1080 / 120 / 1\nSvt[info]: SVT [config]: bit-depth / color format \t\t\t\t\t: 8 / YUV420\nSvt[info]: SVT [config]: preset / tune / pred struct \t\t\t\t\t: 4 / PSNR / random access\nSvt[info]: SVT [config]: gop size / mini-gop size / key-frame type \t\t\t: 641 / 16 / key frame\nSvt[info]: SVT [config]: BRC mode / target bitrate (kbps)\t\t\t\t: VBR / 2500 \nSvt[info]: SVT [config]: AQ mode / Variance Boost \t\t\t\t\t: 2 / 0\nSvt[info]: SVT [config]: sharpness / luminance-based QP bias \t\t\t\t: 0 / 0\nSvt[info]: SVT [config]: QP scale compress strength \t\t\t\t\t: 0\nSvt[info]: -------------------------------------------\nOutput #0, matroska, to 'C:\\Users\\Peter\\Desktop\\stuff\\MIUN\\quantitative_research\\video_compression\\compressed_videos\\UVG\\av1\\2.5\\YachtRide_1920x1080_120fps_420_8bit_YUV_av1.mkv':\n  Metadata:\n    encoder         : Lavf62.3.100\n  Stream #0:0: Video: av1 (AV01 / 0x31305641), yuv420p(tv, progressive), 1920x1080, q=2-31, 2500 kb/s, 120 fps, 1k tbn\n    Metadata:\n      encoder         : Lavc62.11.100 libsvtav1\n    Side data:\n      cpb: bitrate max/min/avg: 0/0/2500000 buffer size: 2500000 vbv_delay: N/A\nframe=    0 fps=0.0 q=0.0 size=       0KiB time=N/A bitrate=N/A speed=N/A elapsed=0:00:02.99    \nframe=    0 fps=0.0 q=0.0 size=       0KiB time=N/A bitrate=N/A speed=N/A elapsed=0:00:03.52    \nframe=    0 fps=0.0 q=0.0 size=       0KiB time=N/A bitrate=N/A speed=N/A elapsed=0:00:04.03    \nframe=    0 fps=0.0 q=0.0 size=       0KiB time=N/A bitrate=N/A speed=N/A elapsed=0:00:04.54    \nframe=    0 fps=0.0 q=0.0 size=       0KiB time=N/A bitrate=N/A speed=N/A elapsed=0:00:05.05    \nframe=    0 fps=0.0 q=0.0 size=       0KiB time=N/A bitrate=N/A speed=N/A elapsed=0:00:05.58    \nframe=    0 fps=0.0 q=0.0 size=       0KiB time=N/A bitrate=N/A speed=N/A elapsed=0:00:06.10    \nframe=    0 fps=0.0 q=0.0 size=       0KiB time=N/A bitrate=N/A speed=N/A elapsed=0:00:06.60    \nframe=    0 fps=0.0 q=0.0 size=       0KiB time=N/A bitrate=N/A speed=N/A elapsed=0:00:07.13    \nframe=    0 fps=0.0 q=0.0 size=       0KiB time=N/A bitrate=N/A speed=N/A elapsed=0:00:07.64    \nframe=    0 fps=0.0 q=0.0 size=       0KiB time=N/A bitrate=N/A speed=N/A elapsed=0:00:08.15    \nframe=    0 fps=0.0 q=0.0 size=       0KiB time=N/A bitrate=N/A speed=N/A elapsed=0:00:08.66    \nframe=    0 fps=0.0 q=0.0 size=       0KiB time=N/A bitrate=N/A speed=N/A elapsed=0:00:09.19    \nframe=    0 fps=0.0 q=0.0 size=       0KiB time=N/A bitrate=N/A speed=N/A elapsed=0:00:09.71    \nframe=    0 fps=0.0 q=0.0 size=       0KiB time=N/A bitrate=N/A speed=N/A elapsed=0:00:10.22    \nframe=    0 fps=0.0 q=0.0 size=       0KiB time=N/A bitrate=N/A speed=N/A elapsed=0:00:10.73    \nframe=    0 fps=0.0 q=0.0 size=       0KiB time=N/A bitrate=N/A speed=N/A elapsed=0:00:11.25    \nframe=    0 fps=0.0 q=0.0 size=       0KiB time=N/A bitrate=N/A speed=N/A elapsed=0:00:11.76    \nframe=    0 fps=0.0 q=0.0 size=       0KiB time=N/A bitrate=N/A speed=N/A elapsed=0:00:12.28    \nframe=    0 fps=0.0 q=0.0 size=       0KiB time=N/A bitrate=N/A speed=N/A elapsed=0:00:12.80    \nframe=    0 fps=0.0 q=0.0 size=       0KiB time=N/A bitrate=N/A speed=N/A elapsed=0:00:13.31    \nframe=    0 fps=0.0 q=0.0 size=       0KiB time=N/A bitrate=N/A speed=N/A elapsed=0:00:13.82    \nframe=    0 fps=0.0 q=0.0 size=       0KiB time=N/A bitrate=N/A speed=N/A elapsed=0:00:14.35    \nframe=    0 fps=0.0 q=0.0 size=       0KiB time=N/A bitrate=N/A speed=N/A elapsed=0:00:14.86    \nframe=    0 fps=0.0 q=0.0 size=       0KiB time=N/A bitrate=N/A speed=N/A elapsed=0:00:15.38    \nframe=    0 fps=0.0 q=0.0 size=       0KiB time=N/A bitrate=N/A speed=N/A elapsed=0:00:15.89    \nframe=    1 fps=0.1 q=32.0 size=       1KiB time=00:00:00.00 bitrate=N/A speed=   0x elapsed=0:00:16.40    \nframe=    1 fps=0.1 q=32.0 size=       1KiB time=00:00:00.00 bitrate=N/A speed=   0x elapsed=0:00:16.91    \nframe=    1 fps=0.1 q=32.0 size=       1KiB time=00:00:00.00 bitrate=N/A speed=   0x elapsed=0:00:17.43    \nframe=    1 fps=0.1 q=32.0 size=       1KiB time=00:00:00.00 bitrate=N/A speed=   0x elapsed=0:00:17.95    \nframe=    1 fps=0.1 q=32.0 size=       1KiB time=00:00:00.00 bitrate=N/A speed=   0x elapsed=0:00:18.47    \nframe=    1 fps=0.1 q=32.0 size=       1KiB time=00:00:00.00 bitrate=N/A speed=   0x elapsed=0:00:18.98    \nframe=    1 fps=0.1 q=32.0 size=       1KiB time=00:00:00.00 bitrate=N/A speed=   0x elapsed=0:00:19.50    \nframe=    1 fps=0.0 q=32.0 size=       1KiB time=00:00:00.00 bitrate=N/A speed=   0x elapsed=0:00:20.02    \nframe=    1 fps=0.0 q=32.0 size=       1KiB time=00:00:00.00 bitrate=N/A speed=   0x elapsed=0:00:20.55    \nframe=    3 fps=0.1 q=54.0 size=       1KiB time=00:00:00.01 bitrate= 268.8kbits/s speed=0.000791x elapsed=0:00:21.06    \nframe=    3 fps=0.1 q=54.0 size=       1KiB time=00:00:00.01 bitrate= 268.8kbits/s speed=0.000772x elapsed=0:00:21.58    \nframe=    3 fps=0.1 q=54.0 size=       1KiB time=00:00:00.01 bitrate= 268.8kbits/s speed=0.000755x elapsed=0:00:22.08    \nframe=    6 fps=0.3 q=53.0 size=       1KiB time=00:00:00.04 bitrate= 107.5kbits/s speed=0.00184x elapsed=0:00:22.67    \nframe=    7 fps=0.3 q=53.0 size=       1KiB time=00:00:00.05 bitrate=  89.6kbits/s speed=0.00215x elapsed=0:00:23.22    \nframe=    7 fps=0.3 q=53.0 size=       1KiB time=00:00:00.05 bitrate=  89.6kbits/s speed=0.00211x elapsed=0:00:23.75    \nframe=    8 fps=0.3 q=52.0 size=       1KiB time=00:00:00.05 bitrate=  76.8kbits/s speed=0.0024x elapsed=0:00:24.26    \nframe=    9 fps=0.4 q=49.0 size=       1KiB time=00:00:00.06 bitrate=  67.2kbits/s speed=0.00269x elapsed=0:00:24.77    \nframe=   10 fps=0.4 q=52.0 size=       1KiB time=00:00:00.06 bitrate=  67.2kbits/s speed=0.00263x elapsed=0:00:25.30    \nframe=   11 fps=0.4 q=53.0 size=       1KiB time=00:00:00.08 bitrate=  53.8kbits/s speed=0.00323x elapsed=0:00:25.82    \nframe=   12 fps=0.5 q=50.0 size=       1KiB time=00:00:00.09 bitrate=  48.9kbits/s speed=0.00347x elapsed=0:00:26.39    \nframe=   13 fps=0.5 q=50.0 size=       1KiB time=00:00:00.10 bitrate=  44.8kbits/s speed=0.0037x elapsed=0:00:27.04    \nframe=   15 fps=0.5 q=53.0 size=       1KiB time=00:00:00.10 bitrate=  41.4kbits/s speed=0.00393x elapsed=0:00:27.56    \nframe=   16 fps=0.6 q=52.0 size=       1KiB time=00:00:00.12 bitrate=  35.8kbits/s speed=0.00445x elapsed=0:00:28.07    \nframe=   17 fps=0.6 q=39.0 size=       1KiB time=00:00:00.13 bitrate=  33.6kbits/s speed=0.00466x elapsed=0:00:28.59    \nframe=   18 fps=0.6 q=52.0 size=       1KiB time=00:00:00.14 bitrate=  31.6kbits/s speed=0.00487x elapsed=0:00:29.10    \nframe=   19 fps=0.6 q=53.0 size=       1KiB time=00:00:00.15 bitrate=  29.9kbits/s speed=0.00506x elapsed=0:00:29.63    \nframe=   20 fps=0.7 q=52.0 size=       1KiB time=00:00:00.15 bitrate=  28.3kbits/s speed=0.00525x elapsed=0:00:30.16    \nframe=   22 fps=0.7 q=52.0 size=       1KiB time=00:00:00.17 bitrate=  25.6kbits/s speed=0.0057x elapsed=0:00:30.68    \nframe=   22 fps=0.7 q=52.0 size=       1KiB time=00:00:00.17 bitrate=  25.6kbits/s speed=0.0056x elapsed=0:00:31.23    \nframe=   22 fps=0.7 q=52.0 size=       1KiB time=00:00:00.17 bitrate=  25.6kbits/s speed=0.0055x elapsed=0:00:31.81    \nframe=   23 fps=0.7 q=53.0 size=       1KiB time=00:00:00.18 bitrate=  24.4kbits/s speed=0.00567x elapsed=0:00:32.33    \nframe=   24 fps=0.7 q=52.0 size=       1KiB time=00:00:00.18 bitrate=  24.4kbits/s speed=0.00557x elapsed=0:00:32.91    \nframe=   25 fps=0.7 q=49.0 size=       1KiB time=00:00:00.20 bitrate=  22.4kbits/s speed=0.00597x elapsed=0:00:33.50    \nframe=   26 fps=0.8 q=52.0 size=       1KiB time=00:00:00.20 bitrate=  21.5kbits/s speed=0.00611x elapsed=0:00:34.09    \nframe=   27 fps=0.8 q=53.0 size=       1KiB time=00:00:00.21 bitrate=  20.7kbits/s speed=0.00624x elapsed=0:00:34.69    \nframe=   27 fps=0.8 q=53.0 size=       1KiB time=00:00:00.21 bitrate=  20.7kbits/s speed=0.00615x elapsed=0:00:35.21    \nframe=   29 fps=0.8 q=50.0 size=       1KiB time=00:00:00.23 bitrate=  19.2kbits/s speed=0.00652x elapsed=0:00:35.77    \nframe=   30 fps=0.8 q=53.0 size=       1KiB time=00:00:00.23 bitrate=  19.2kbits/s speed=0.00643x elapsed=0:00:36.30    \nframe=   31 fps=0.8 q=53.0 size=       1KiB time=00:00:00.25 bitrate=  17.9kbits/s speed=0.00678x elapsed=0:00:36.89    \nframe=   33 fps=0.9 q=39.0 size=       1KiB time=00:00:00.26 bitrate=  16.8kbits/s speed=0.00712x elapsed=0:00:37.43    \nframe=   35 fps=0.9 q=53.0 size=       1KiB time=00:00:00.28 bitrate=  15.8kbits/s speed=0.00744x elapsed=0:00:38.06    \nframe=   35 fps=0.9 q=53.0 size=       1KiB time=00:00:00.28 bitrate=  15.8kbits/s speed=0.00734x elapsed=0:00:38.58    \nframe=   36 fps=0.9 q=54.0 size=       1KiB time=00:00:00.29 bitrate=  15.4kbits/s speed=0.00746x elapsed=0:00:39.10    \nframe=   37 fps=0.9 q=52.0 size=       1KiB time=00:00:00.30 bitrate=  14.9kbits/s speed=0.00757x elapsed=0:00:39.61    \nframe=   38 fps=0.9 q=55.0 size=       1KiB time=00:00:00.30 bitrate=  14.5kbits/s speed=0.00768x elapsed=0:00:40.14    \nframe=   38 fps=0.9 q=55.0 size=       1KiB time=00:00:00.30 bitrate=  14.5kbits/s speed=0.00758x elapsed=0:00:40.67    \nframe=   38 fps=0.9 q=55.0 size=       1KiB time=00:00:00.30 bitrate=  14.5kbits/s speed=0.00749x elapsed=0:00:41.18    \nframe=   39 fps=0.9 q=54.0 size=       1KiB time=00:00:00.31 bitrate=  14.1kbits/s speed=0.00759x elapsed=0:00:41.72    \nframe=   39 fps=0.9 q=54.0 size=       1KiB time=00:00:00.31 bitrate=  14.1kbits/s speed=0.00749x elapsed=0:00:42.27    \nframe=   42 fps=1.0 q=56.0 size=       1KiB time=00:00:00.32 bitrate=  13.8kbits/s speed=0.00759x elapsed=0:00:42.79    \nframe=   43 fps=1.0 q=54.0 size=       1KiB time=00:00:00.35 bitrate=  12.8kbits/s speed=0.00807x elapsed=0:00:43.38    \nframe=   44 fps=1.0 q=56.0 size=       1KiB time=00:00:00.35 bitrate=  12.5kbits/s speed=0.00815x elapsed=0:00:43.96    \nframe=   46 fps=1.0 q=55.0 size=       1KiB time=00:00:00.37 bitrate=  11.9kbits/s speed=0.00842x elapsed=0:00:44.53    \nframe=   46 fps=1.0 q=55.0 size=       1KiB time=00:00:00.37 bitrate=  11.9kbits/s speed=0.00832x elapsed=0:00:45.06    \nframe=   47 fps=1.0 q=53.0 size=       1KiB time=00:00:00.38 bitrate=  11.7kbits/s speed=0.0084x elapsed=0:00:45.66    \nframe=   48 fps=1.0 q=55.0 size=       1KiB time=00:00:00.39 bitrate=  11.4kbits/s speed=0.00848x elapsed=0:00:46.20    \nframe=   50 fps=1.1 q=56.0 size=       1KiB time=00:00:00.40 bitrate=  11.0kbits/s speed=0.00874x elapsed=0:00:46.74    \nframe=   52 fps=1.1 q=56.0 size=       1KiB time=00:00:00.42 bitrate=  10.5kbits/s speed=0.009x elapsed=0:00:47.24    \nframe=   54 fps=1.1 q=56.0 size=       1KiB time=00:00:00.44 bitrate=  10.1kbits/s speed=0.00924x elapsed=0:00:47.80    \nframe=   54 fps=1.1 q=56.0 size=       1KiB time=00:00:00.44 bitrate=  10.1kbits/s speed=0.00913x elapsed=0:00:48.36    \nframe=   55 fps=1.1 q=55.0 size=       1KiB time=00:00:00.45 bitrate=  10.0kbits/s speed=0.0092x elapsed=0:00:48.93    \nframe=   55 fps=1.1 q=55.0 size=       1KiB time=00:00:00.45 bitrate=  10.0kbits/s speed=0.00908x elapsed=0:00:49.55    \nframe=   56 fps=1.1 q=56.0 size=       1KiB time=00:00:00.45 bitrate=   9.8kbits/s speed=0.00915x elapsed=0:00:50.11    \nframe=   58 fps=1.1 q=55.0 size=       1KiB time=00:00:00.47 bitrate=   9.4kbits/s speed=0.00938x elapsed=0:00:50.62    \nframe=   59 fps=1.2 q=53.0 size=       1KiB time=00:00:00.48 bitrate=   9.3kbits/s speed=0.00945x elapsed=0:00:51.15    \nframe=   61 fps=1.2 q=50.0 size=       1KiB time=00:00:00.49 bitrate=   9.1kbits/s speed=0.00952x elapsed=0:00:51.67    \nframe=   62 fps=1.2 q=55.0 size=       1KiB time=00:00:00.50 bitrate=   8.8kbits/s speed=0.00974x elapsed=0:00:52.21    \nframe=   63 fps=1.2 q=53.0 size=       1KiB time=00:00:00.51 bitrate=   8.7kbits/s speed=0.00979x elapsed=0:00:52.76    \nframe=   65 fps=1.2 q=37.0 size=       1KiB time=00:00:00.53 bitrate=   8.4kbits/s speed=0.01x elapsed=0:00:53.28    \nframe=   67 fps=1.2 q=55.0 size=       1KiB time=00:00:00.55 bitrate=   8.1kbits/s speed=0.0102x elapsed=0:00:53.85    \nframe=   67 fps=1.2 q=55.0 size=       1KiB time=00:00:00.55 bitrate=   8.1kbits/s speed=0.0101x elapsed=0:00:54.40    \nframe=   68 fps=1.2 q=56.0 size=       1KiB time=00:00:00.55 bitrate=   8.0kbits/s speed=0.0102x elapsed=0:00:54.95    \nframe=   69 fps=1.2 q=53.0 size=       1KiB time=00:00:00.56 bitrate=   7.9kbits/s speed=0.0102x elapsed=0:00:55.48    \nframe=   70 fps=1.2 q=54.0 size=       1KiB time=00:00:00.57 bitrate=   7.8kbits/s speed=0.0103x elapsed=0:00:56.03    \nframe=   70 fps=1.2 q=54.0 size=       1KiB time=00:00:00.57 bitrate=   7.8kbits/s speed=0.0102x elapsed=0:00:56.61    \nframe=   70 fps=1.2 q=54.0 size=       1KiB time=00:00:00.57 bitrate=   7.8kbits/s speed=0.0101x elapsed=0:00:57.16    \nframe=   71 fps=1.2 q=51.0 size=       1KiB time=00:00:00.58 bitrate=   7.7kbits/s speed=0.0101x elapsed=0:00:57.70    \nframe=   71 fps=1.2 q=51.0 size=       1KiB time=00:00:00.58 bitrate=   7.7kbits/s speed=0.01x elapsed=0:00:58.23    \nframe=   73 fps=1.2 q=49.0 size=       1KiB time=00:00:00.60 bitrate=   7.5kbits/s speed=0.0102x elapsed=0:00:58.76    \nframe=   74 fps=1.2 q=55.0 size=       1KiB time=00:00:00.60 bitrate=   7.4kbits/s speed=0.0103x elapsed=0:00:59.27    \nframe=   75 fps=1.3 q=53.0 size=       1KiB time=00:00:00.61 bitrate=   7.3kbits/s speed=0.0103x elapsed=0:00:59.79    \nframe=   78 fps=1.3 q=55.0 size=       1KiB time=00:00:00.64 bitrate=   7.0kbits/s speed=0.0106x elapsed=0:01:00.31    \nframe=   79 fps=1.3 q=53.0 size=       1KiB time=00:00:00.65 bitrate=   6.9kbits/s speed=0.0107x elapsed=0:01:00.88    \nframe=   81 fps=1.3 q=38.0 size=       1KiB time=00:00:00.66 bitrate=   6.7kbits/s speed=0.0109x elapsed=0:01:01.43    \nframe=   82 fps=1.3 q=56.0 size=       1KiB time=00:00:00.67 bitrate=   6.6kbits/s speed=0.0109x elapsed=0:01:01.95    \nframe=   82 fps=1.3 q=56.0 size=       1KiB time=00:00:00.67 bitrate=   6.6kbits/s speed=0.0108x elapsed=0:01:02.48    \nframe=   83 fps=1.3 q=55.0 size=       1KiB time=00:00:00.68 bitrate=   6.6kbits/s speed=0.0108x elapsed=0:01:02.99    \nframe=   86 fps=1.4 q=56.0 size=       1KiB time=00:00:00.70 bitrate=   6.3kbits/s speed=0.0111x elapsed=0:01:03.53    \nframe=   86 fps=1.3 q=56.0 size=       1KiB time=00:00:00.70 bitrate=   6.3kbits/s speed=0.0111x elapsed=0:01:04.09    \nframe=   86 fps=1.3 q=56.0 size=       1KiB time=00:00:00.70 bitrate=   6.3kbits/s speed=0.011x elapsed=0:01:04.64    \nframe=   87 fps=1.3 q=55.0 size=       1KiB time=00:00:00.71 bitrate=   6.3kbits/s speed=0.011x elapsed=0:01:05.16    \nframe=   88 fps=1.3 q=56.0 size=       1KiB time=00:00:00.72 bitrate=   6.2kbits/s speed=0.011x elapsed=0:01:05.69    \nframe=   90 fps=1.4 q=56.0 size=       1KiB time=00:00:00.74 bitrate=   6.0kbits/s speed=0.0112x elapsed=0:01:06.21    \nframe=   91 fps=1.4 q=55.0 size=       1KiB time=00:00:00.75 bitrate=   6.0kbits/s speed=0.0112x elapsed=0:01:06.78    \nframe=   93 fps=1.4 q=53.0 size=       1KiB time=00:00:00.76 bitrate=   5.8kbits/s speed=0.0114x elapsed=0:01:07.29    \nframe=   94 fps=1.4 q=56.0 size=       1KiB time=00:00:00.77 bitrate=   5.8kbits/s speed=0.0114x elapsed=0:01:07.82    \nframe=   95 fps=1.4 q=55.0 size=       1KiB time=00:00:00.78 bitrate=   5.7kbits/s speed=0.0115x elapsed=0:01:08.34    \nframe=   98 fps=1.4 q=56.0 size=       1KiB time=00:00:00.80 bitrate=   5.6kbits/s speed=0.0116x elapsed=0:01:08.86    \nframe=   98 fps=1.4 q=56.0 size=       1KiB time=00:00:00.80 bitrate=   5.5kbits/s speed=0.0116x elapsed=0:01:09.52    \nframe=  100 fps=1.4 q=56.0 size=       1KiB time=00:00:00.82 bitrate=   5.4kbits/s speed=0.0118x elapsed=0:01:10.10    \nframe=  101 fps=1.4 q=53.0 size=       1KiB time=00:00:00.83 bitrate=   5.4kbits/s speed=0.0118x elapsed=0:01:10.61    \nframe=  102 fps=1.4 q=56.0 size=       1KiB time=00:00:00.84 bitrate=   5.3kbits/s speed=0.0118x elapsed=0:01:11.16    \nframe=  102 fps=1.4 q=56.0 size=       1KiB time=00:00:00.84 bitrate=   5.3kbits/s speed=0.0117x elapsed=0:01:11.69    \nframe=  103 fps=1.4 q=55.0 size=       1KiB time=00:00:00.85 bitrate=   5.3kbits/s speed=0.0118x elapsed=0:01:12.26    \nframe=  103 fps=1.4 q=55.0 size=       1KiB time=00:00:00.85 bitrate=   5.3kbits/s speed=0.0117x elapsed=0:01:12.84    \nframe=  104 fps=1.4 q=48.0 size=       1KiB time=00:00:00.85 bitrate=   5.2kbits/s speed=0.0117x elapsed=0:01:13.37    \nframe=  107 fps=1.4 q=53.0 size=       1KiB time=00:00:00.88 bitrate=   5.1kbits/s speed=0.012x elapsed=0:01:13.89    \nframe=  108 fps=1.5 q=55.0 size=       1KiB time=00:00:00.89 bitrate=   5.0kbits/s speed=0.012x elapsed=0:01:14.42    \nframe=  110 fps=1.5 q=57.0 size=       1KiB time=00:00:00.90 bitrate=   4.9kbits/s speed=0.0121x elapsed=0:01:14.95    \nframe=  112 fps=1.5 q=55.0 size=       1KiB time=00:00:00.92 bitrate=   4.8kbits/s speed=0.0123x elapsed=0:01:15.46    \nframe=  114 fps=1.5 q=57.0 size=       1KiB time=00:00:00.94 bitrate=   4.8kbits/s speed=0.0124x elapsed=0:01:15.97    \nframe=  114 fps=1.5 q=57.0 size=       1KiB time=00:00:00.94 bitrate=   4.8kbits/s speed=0.0123x elapsed=0:01:16.53    \nframe=  116 fps=1.5 q=57.0 size=       1KiB time=00:00:00.95 bitrate=   4.7kbits/s speed=0.0124x elapsed=0:01:17.07    \nframe=  118 fps=1.5 q=56.0 size=       1KiB time=00:00:00.97 bitrate=   4.6kbits/s speed=0.0126x elapsed=0:01:17.59    \nframe=  118 fps=1.5 q=56.0 size=       1KiB time=00:00:00.97 bitrate=   4.6kbits/s speed=0.0125x elapsed=0:01:18.15    \nframe=  118 fps=1.5 q=56.0 size=       1KiB time=00:00:00.97 bitrate=   4.6kbits/s speed=0.0124x elapsed=0:01:18.68    \nframe=  119 fps=1.5 q=55.0 size=       1KiB time=00:00:00.98 bitrate=   4.6kbits/s speed=0.0124x elapsed=0:01:19.20    \nframe=  119 fps=1.5 q=55.0 size=       1KiB time=00:00:00.98 bitrate=   4.6kbits/s speed=0.0123x elapsed=0:01:19.75    \nframe=  120 fps=1.5 q=54.0 size=       1KiB time=00:00:00.99 bitrate=   4.5kbits/s speed=0.0123x elapsed=0:01:20.30    \nframe=  121 fps=1.5 q=49.0 size=       1KiB time=00:00:01.00 bitrate=   4.5kbits/s speed=0.0124x elapsed=0:01:20.85    \nframe=  123 fps=1.5 q=54.0 size=       1KiB time=00:00:01.01 bitrate=   4.4kbits/s speed=0.0125x elapsed=0:01:21.41    \nframe=  123 fps=1.5 q=54.0 size=       1KiB time=00:00:01.01 bitrate=   4.4kbits/s speed=0.0124x elapsed=0:01:22.03    \nframe=  126 fps=1.5 q=56.0 size=       1KiB time=00:00:01.04 bitrate=   4.3kbits/s speed=0.0126x elapsed=0:01:22.59    \nframe=  128 fps=1.5 q=56.0 size=       1KiB time=00:00:01.05 bitrate=   4.2kbits/s speed=0.0127x elapsed=0:01:23.11    \nframe=  131 fps=1.6 q=56.0 size=       1KiB time=00:00:01.08 bitrate=   4.1kbits/s speed=0.013x elapsed=0:01:23.64    \nframe=  133 fps=1.6 q=54.0 size=       1KiB time=00:00:01.10 bitrate=   4.1kbits/s speed=0.0131x elapsed=0:01:24.18    \nframe=  134 fps=1.6 q=57.0 size=       1KiB time=00:00:01.10 bitrate=   4.0kbits/s speed=0.0131x elapsed=0:01:24.70    \nframe=  135 fps=1.6 q=56.0 size=       1KiB time=00:00:01.11 bitrate=   4.0kbits/s speed=0.0131x elapsed=0:01:25.23    \nframe=  136 fps=1.6 q=57.0 size=       1KiB time=00:00:01.12 bitrate=   4.0kbits/s speed=0.0131x elapsed=0:01:25.77    \nframe=  139 fps=1.6 q=54.0 size=       1KiB time=00:00:01.15 bitrate=   3.9kbits/s speed=0.0133x elapsed=0:01:26.28    \nframe=  139 fps=1.6 q=54.0 size=       1KiB time=00:00:01.15 bitrate=   3.9kbits/s speed=0.0132x elapsed=0:01:26.81    \nframe=  141 fps=1.6 q=51.0 size=       1KiB time=00:00:01.16 bitrate=   3.8kbits/s speed=0.0134x elapsed=0:01:27.37    \nframe=  143 fps=1.6 q=54.0 size=       1KiB time=00:00:01.18 bitrate=   3.8kbits/s speed=0.0135x elapsed=0:01:27.88    \nframe=  144 fps=1.6 q=56.0 size=       1KiB time=00:00:01.19 bitrate=   3.8kbits/s speed=0.0135x elapsed=0:01:28.40    \nframe=  146 fps=1.6 q=57.0 size=       1KiB time=00:00:01.20 bitrate=   3.7kbits/s speed=0.0136x elapsed=0:01:28.94    \nframe=  148 fps=1.7 q=57.0 size=       1KiB time=00:00:01.22 bitrate=   3.7kbits/s speed=0.0137x elapsed=0:01:29.49    \nframe=  150 fps=1.7 q=57.0 size=       1KiB time=00:00:01.24 bitrate=   3.6kbits/s speed=0.0138x elapsed=0:01:30.03    \nframe=  150 fps=1.7 q=57.0 size=       1KiB time=00:00:01.24 bitrate=   3.6kbits/s speed=0.0137x elapsed=0:01:30.55    \nframe=  151 fps=1.7 q=56.0 size=       1KiB time=00:00:01.25 bitrate=   3.6kbits/s speed=0.0137x elapsed=0:01:31.05    \nframe=  153 fps=1.7 q=50.0 size=       1KiB time=00:00:01.26 bitrate=   3.5kbits/s speed=0.0138x elapsed=0:01:31.62    \nframe=  156 fps=1.7 q=57.0 size=       1KiB time=00:00:01.29 bitrate=   3.5kbits/s speed=0.014x elapsed=0:01:32.18    \nframe=  157 fps=1.7 q=52.0 size=       1KiB time=00:00:01.30 bitrate=   3.4kbits/s speed=0.014x elapsed=0:01:32.74    \nframe=  159 fps=1.7 q=55.0 size=       1KiB time=00:00:01.31 bitrate=   3.4kbits/s speed=0.0141x elapsed=0:01:33.26    \nframe=  161 fps=1.7 q=41.0 size=       1KiB time=00:00:01.33 bitrate=   3.4kbits/s speed=0.0142x elapsed=0:01:33.80    \nframe=  162 fps=1.7 q=58.0 size=       1KiB time=00:00:01.34 bitrate=   3.3kbits/s speed=0.0142x elapsed=0:01:34.33    \nframe=  164 fps=1.7 q=58.0 size=       1KiB time=00:00:01.35 bitrate=   3.3kbits/s speed=0.0143x elapsed=0:01:34.93    \nframe=  165 fps=1.7 q=55.0 size=       1KiB time=00:00:01.36 bitrate=   3.3kbits/s speed=0.0143x elapsed=0:01:35.46    \nframe=  167 fps=1.7 q=57.0 size=       1KiB time=00:00:01.38 bitrate=   3.2kbits/s speed=0.0144x elapsed=0:01:35.98    \nframe=  167 fps=1.7 q=57.0 size=       1KiB time=00:00:01.38 bitrate=   3.2kbits/s speed=0.0143x elapsed=0:01:36.51    \nframe=  169 fps=1.7 q=51.0 size=       1KiB time=00:00:01.40 bitrate=   3.2kbits/s speed=0.0144x elapsed=0:01:37.09    \nframe=  171 fps=1.8 q=57.0 size=       1KiB time=00:00:01.41 bitrate=   3.2kbits/s speed=0.0145x elapsed=0:01:37.64    \nframe=  174 fps=1.8 q=58.0 size=       1KiB time=00:00:01.44 bitrate=   3.1kbits/s speed=0.0147x elapsed=0:01:38.20    \nframe=  176 fps=1.8 q=58.0 size=       1KiB time=00:00:01.45 bitrate=   3.1kbits/s speed=0.0148x elapsed=0:01:38.75    \nframe=  178 fps=1.8 q=58.0 size=       1KiB time=00:00:01.47 bitrate=   3.0kbits/s speed=0.0148x elapsed=0:01:39.35    \nframe=  181 fps=1.8 q=55.0 size=       1KiB time=00:00:01.49 bitrate=   3.0kbits/s speed=0.0149x elapsed=0:01:39.86    \nframe=  182 fps=1.8 q=58.0 size=       1KiB time=00:00:01.50 bitrate=   3.0kbits/s speed=0.0149x elapsed=0:01:40.45    \nframe=  182 fps=1.8 q=58.0 size=       1KiB time=00:00:01.50 bitrate=   3.0kbits/s speed=0.0149x elapsed=0:01:41.01    \nframe=  183 fps=1.8 q=57.0 size=       1KiB time=00:00:01.51 bitrate=   3.0kbits/s speed=0.0149x elapsed=0:01:41.57    \nframe=  184 fps=1.8 q=58.0 size=       1KiB time=00:00:01.52 bitrate=   2.9kbits/s speed=0.0149x elapsed=0:01:42.09    \nframe=  186 fps=1.8 q=58.0 size=       1KiB time=00:00:01.54 bitrate=   2.9kbits/s speed=0.015x elapsed=0:01:42.60    \nframe=  189 fps=1.8 q=55.0 size=       1KiB time=00:00:01.56 bitrate=   2.9kbits/s speed=0.0152x elapsed=0:01:43.16    \nframe=  190 fps=1.8 q=58.0 size=       1KiB time=00:00:01.57 bitrate=   2.8kbits/s speed=0.0152x elapsed=0:01:43.70    \nframe=  192 fps=1.8 q=56.0 size=       1KiB time=00:00:01.59 bitrate=   2.8kbits/s speed=0.0153x elapsed=0:01:44.22    \nframe=  194 fps=1.9 q=59.0 size=       1KiB time=00:00:01.60 bitrate=   2.8kbits/s speed=0.0154x elapsed=0:01:44.77    \nframe=  197 fps=1.9 q=56.0 size=       1KiB time=00:00:01.62 bitrate=   2.8kbits/s speed=0.0154x elapsed=0:01:45.31    \nframe=  197 fps=1.9 q=56.0 size=       1KiB time=00:00:01.63 bitrate=   2.7kbits/s speed=0.0154x elapsed=0:01:45.89    \nframe=  199 fps=1.9 q=58.0 size=       1KiB time=00:00:01.65 bitrate=   2.7kbits/s speed=0.0155x elapsed=0:01:46.41    \nframe=  202 fps=1.9 q=59.0 size=       1KiB time=00:00:01.67 bitrate=   2.7kbits/s speed=0.0157x elapsed=0:01:46.91    \nframe=  206 fps=1.9 q=57.0 size=       1KiB time=00:00:01.70 bitrate=   2.6kbits/s speed=0.0159x elapsed=0:01:47.43    \nframe=  209 fps=1.9 q=43.0 size=       1KiB time=00:00:01.73 bitrate=   2.6kbits/s speed=0.0161x elapsed=0:01:47.97    \nframe=  210 fps=1.9 q=58.0 size=       1KiB time=00:00:01.74 bitrate=   2.6kbits/s speed=0.016x elapsed=0:01:48.52    \nframe=  212 fps=1.9 q=58.0 size=       1KiB time=00:00:01.75 bitrate=   2.5kbits/s speed=0.0161x elapsed=0:01:49.04    \nframe=  213 fps=1.9 q=55.0 size=       1KiB time=00:00:01.76 bitrate=   2.5kbits/s speed=0.0161x elapsed=0:01:49.59    \nframe=  214 fps=1.9 q=58.0 size=       1KiB time=00:00:01.77 bitrate=   2.5kbits/s speed=0.0161x elapsed=0:01:50.14    \nframe=  215 fps=1.9 q=57.0 size=       1KiB time=00:00:01.78 bitrate=   2.5kbits/s speed=0.0161x elapsed=0:01:50.67    \nframe=  217 fps=2.0 q=52.0 size=       1KiB time=00:00:01.80 bitrate=   2.5kbits/s speed=0.0162x elapsed=0:01:51.20    \nframe=  219 fps=2.0 q=57.0 size=       1KiB time=00:00:01.81 bitrate=   2.5kbits/s speed=0.0163x elapsed=0:01:51.75    \nframe=  221 fps=2.0 q=55.0 size=       1KiB time=00:00:01.83 bitrate=   2.4kbits/s speed=0.0163x elapsed=0:01:52.36    \nframe=  223 fps=2.0 q=57.0 size=       1KiB time=00:00:01.85 bitrate=   2.4kbits/s speed=0.0164x elapsed=0:01:52.96    \nframe=  224 fps=2.0 q=58.0 size=       1KiB time=00:00:01.85 bitrate=   2.4kbits/s speed=0.0164x elapsed=0:01:53.51    \nframe=  226 fps=2.0 q=59.0 size=       1KiB time=00:00:01.87 bitrate=   2.4kbits/s speed=0.0164x elapsed=0:01:54.06    \nframe=  229 fps=2.0 q=56.0 size=       1KiB time=00:00:01.90 bitrate=   2.4kbits/s speed=0.0166x elapsed=0:01:54.57    \nframe=  230 fps=2.0 q=59.0 size=       1KiB time=00:00:01.90 bitrate=   2.3kbits/s speed=0.0166x elapsed=0:01:55.14    \nframe=  232 fps=2.0 q=59.0 size=       1KiB time=00:00:01.91 bitrate=   2.3kbits/s speed=0.0166x elapsed=0:01:55.67    \nframe=  234 fps=2.0 q=59.0 size=       1KiB time=00:00:01.94 bitrate=   2.3kbits/s speed=0.0167x elapsed=0:01:56.25    \nframe=  237 fps=2.0 q=56.0 size=       1KiB time=00:00:01.96 bitrate=   2.3kbits/s speed=0.0168x elapsed=0:01:56.87    \nframe=  239 fps=2.0 q=58.0 size=       1KiB time=00:00:01.98 bitrate=   2.3kbits/s speed=0.0169x elapsed=0:01:57.40    \nframe=  241 fps=2.0 q=44.0 size=       1KiB time=00:00:02.00 bitrate=   2.2kbits/s speed=0.0169x elapsed=0:01:58.02    \nframe=  245 fps=2.1 q=55.0 size=       1KiB time=00:00:02.03 bitrate=   2.2kbits/s speed=0.0171x elapsed=0:01:58.58    \nframe=  246 fps=2.1 q=58.0 size=       1KiB time=00:00:02.04 bitrate=   2.2kbits/s speed=0.0171x elapsed=0:01:59.10    \nframe=  247 fps=2.1 q=57.0 size=       1KiB time=00:00:02.05 bitrate=   2.2kbits/s speed=0.0171x elapsed=0:01:59.61    \nframe=  248 fps=2.1 q=52.0 size=       1KiB time=00:00:02.05 bitrate=   2.2kbits/s speed=0.0171x elapsed=0:02:00.21    \nframe=  251 fps=2.1 q=56.0 size=       1KiB time=00:00:02.08 bitrate=   2.2kbits/s speed=0.0173x elapsed=0:02:00.72    \nframe=  254 fps=2.1 q=58.0 size=       1KiB time=00:00:02.10 bitrate=   2.1kbits/s speed=0.0173x elapsed=0:02:01.27    \nframe=  257 fps=2.1 q=43.0 size=       1KiB time=00:00:02.12 bitrate=   2.1kbits/s speed=0.0174x elapsed=0:02:01.81    \nframe=  259 fps=2.1 q=58.0 size=       1KiB time=00:00:02.15 bitrate=   2.1kbits/s speed=0.0176x elapsed=0:02:02.35    \nframe=  262 fps=2.1 q=59.0 size=       1KiB time=00:00:02.17 bitrate=   2.1kbits/s speed=0.0177x elapsed=0:02:02.88    \nframe=  263 fps=2.1 q=58.0 size=       1KiB time=00:00:02.18 bitrate=   2.1kbits/s speed=0.0177x elapsed=0:02:03.39    \nframe=  265 fps=2.1 q=52.0 size=       1KiB time=00:00:02.20 bitrate=   2.0kbits/s speed=0.0178x elapsed=0:02:03.92    \nframe=  266 fps=2.1 q=58.0 size=       1KiB time=00:00:02.20 bitrate=   2.0kbits/s speed=0.0177x elapsed=0:02:04.44    \nframe=  269 fps=2.2 q=53.0 size=       1KiB time=00:00:02.23 bitrate=   2.0kbits/s speed=0.0179x elapsed=0:02:05.02    \nframe=  271 fps=2.2 q=56.0 size=       1KiB time=00:00:02.25 bitrate=   2.0kbits/s speed=0.0179x elapsed=0:02:05.59    \nframe=  274 fps=2.2 q=59.0 size=       1KiB time=00:00:02.26 bitrate=   2.0kbits/s speed=0.018x elapsed=0:02:06.14    \nframe=  275 fps=2.2 q=58.0 size=       1KiB time=00:00:02.28 bitrate=   2.0kbits/s speed=0.018x elapsed=0:02:06.68    \nframe=  277 fps=2.2 q=56.0 size=       1KiB time=00:00:02.30 bitrate=   1.9kbits/s speed=0.0181x elapsed=0:02:07.23    \nframe=  279 fps=2.2 q=58.0 size=       1KiB time=00:00:02.31 bitrate=   1.9kbits/s speed=0.0181x elapsed=0:02:07.84    \nframe=  280 fps=2.2 q=59.0 size=       1KiB time=00:00:02.32 bitrate=   1.9kbits/s speed=0.0181x elapsed=0:02:08.39    \nframe=  282 fps=2.2 q=59.0 size=       1KiB time=00:00:02.34 bitrate=   1.9kbits/s speed=0.0182x elapsed=0:02:08.91    \nframe=  286 fps=2.2 q=59.0 size=       1KiB time=00:00:02.37 bitrate=   1.9kbits/s speed=0.0183x elapsed=0:02:09.43    \nframe=  287 fps=2.2 q=58.0 size=       1KiB time=00:00:02.38 bitrate=   1.9kbits/s speed=0.0183x elapsed=0:02:09.95    \nframe=  290 fps=2.2 q=59.0 size=       1KiB time=00:00:02.40 bitrate=   1.9kbits/s speed=0.0185x elapsed=0:02:10.47    \nframe=  293 fps=2.2 q=56.0 size=       1KiB time=00:00:02.43 bitrate=   1.8kbits/s speed=0.0186x elapsed=0:02:11.01    \nframe=  295 fps=2.2 q=58.0 size=       1KiB time=00:00:02.45 bitrate=   1.8kbits/s speed=0.0186x elapsed=0:02:11.52    \nframe=  298 fps=2.3 q=59.0 size=       1KiB time=00:00:02.47 bitrate=   1.8kbits/s speed=0.0187x elapsed=0:02:12.07    \nframe=  302 fps=2.3 q=59.0 size=       1KiB time=00:00:02.50 bitrate=   1.8kbits/s speed=0.0189x elapsed=0:02:12.63    \nframe=  304 fps=2.3 q=55.0 size=       1KiB time=00:00:02.52 bitrate=   1.8kbits/s speed=0.019x elapsed=0:02:13.15    \nframe=  306 fps=2.3 q=58.0 size=       1KiB time=00:00:02.54 bitrate=   1.8kbits/s speed=0.019x elapsed=0:02:13.67    \nframe=  309 fps=2.3 q=55.0 size=       1KiB time=00:00:02.56 bitrate=   1.7kbits/s speed=0.0191x elapsed=0:02:14.22    \nframe=  310 fps=2.3 q=58.0 size=       1KiB time=00:00:02.57 bitrate=   1.7kbits/s speed=0.0191x elapsed=0:02:14.75    \nframe=  311 fps=2.3 q=57.0 size=       1KiB time=00:00:02.57 bitrate=   1.7kbits/s speed=0.019x elapsed=0:02:15.27    \nframe=  311 fps=2.3 q=57.0 size=       1KiB time=00:00:02.58 bitrate=   1.7kbits/s speed=0.019x elapsed=0:02:15.92    \nframe=  313 fps=2.3 q=52.0 size=       1KiB time=00:00:02.60 bitrate=   1.7kbits/s speed=0.0191x elapsed=0:02:16.43    \nframe=  315 fps=2.3 q=56.0 size=       1KiB time=00:00:02.61 bitrate=   1.7kbits/s speed=0.0191x elapsed=0:02:16.95    \nframe=  317 fps=2.3 q=53.0 size=       1KiB time=00:00:02.63 bitrate=   1.7kbits/s speed=0.0192x elapsed=0:02:17.46    \nframe=  319 fps=2.3 q=56.0 size=       1KiB time=00:00:02.65 bitrate=   1.7kbits/s speed=0.0192x elapsed=0:02:17.98    \nframe=  323 fps=2.3 q=58.0 size=       1KiB time=00:00:02.68 bitrate=   1.7kbits/s speed=0.0194x elapsed=0:02:18.50    \nframe=  326 fps=2.3 q=59.0 size=       1KiB time=00:00:02.70 bitrate=   1.7kbits/s speed=0.0195x elapsed=0:02:19.01    \nframe=  327 fps=2.3 q=58.0 size=       1KiB time=00:00:02.71 bitrate=   1.6kbits/s speed=0.0195x elapsed=0:02:19.52    \nframe=  329 fps=2.3 q=52.0 size=       1KiB time=00:00:02.73 bitrate=   1.6kbits/s speed=0.0195x elapsed=0:02:20.05    \nframe=  332 fps=2.4 q=58.0 size=       1KiB time=00:00:02.75 bitrate=   1.6kbits/s speed=0.0196x elapsed=0:02:20.56    \nframe=  334 fps=2.4 q=58.0 size=       1KiB time=00:00:02.77 bitrate=   1.6kbits/s speed=0.0197x elapsed=0:02:21.08    \nframe=  337 fps=2.4 q=43.0 size=       1KiB time=00:00:02.80 bitrate=   1.6kbits/s speed=0.0198x elapsed=0:02:21.59    \nframe=  341 fps=2.4 q=56.0 size=       1KiB time=00:00:02.83 bitrate=   1.6kbits/s speed=0.0199x elapsed=0:02:22.10    \nframe=  343 fps=2.4 q=58.0 size=       1KiB time=00:00:02.85 bitrate=   1.6kbits/s speed=0.02x elapsed=0:02:22.63    \nframe=  345 fps=2.4 q=52.0 size=       1KiB time=00:00:02.86 bitrate=   1.6kbits/s speed=0.02x elapsed=0:02:23.15    \nframe=  347 fps=2.4 q=57.0 size=       1KiB time=00:00:02.88 bitrate=   1.6kbits/s speed=0.0201x elapsed=0:02:23.67    \nframe=  350 fps=2.4 q=58.0 size=       1KiB time=00:00:02.90 bitrate=   1.5kbits/s speed=0.0202x elapsed=0:02:24.19    \nframe=  352 fps=2.4 q=58.0 size=       1KiB time=00:00:02.92 bitrate=   1.5kbits/s speed=0.0202x elapsed=0:02:24.70    \nframe=  354 fps=2.4 q=59.0 size=       1KiB time=00:00:02.94 bitrate=   1.5kbits/s speed=0.0203x elapsed=0:02:25.22    \nframe=  358 fps=2.5 q=59.0 size=       1KiB time=00:00:02.97 bitrate=   1.5kbits/s speed=0.0204x elapsed=0:02:25.73    \nframe=  359 fps=2.5 q=58.0 size=       1KiB time=00:00:02.98 bitrate=   1.5kbits/s speed=0.0204x elapsed=0:02:26.25    \nframe=  360 fps=2.5 q=59.0 size=       1KiB time=00:00:02.99 bitrate=   1.5kbits/s speed=0.0204x elapsed=0:02:26.76    \nframe=  363 fps=2.5 q=57.0 size=       1KiB time=00:00:03.01 bitrate=   1.5kbits/s speed=0.0205x elapsed=0:02:27.28    \nframe=  365 fps=2.5 q=54.0 size=       1KiB time=00:00:03.03 bitrate=   1.5kbits/s speed=0.0205x elapsed=0:02:27.80    \nframe=  367 fps=2.5 q=57.0 size=       1KiB time=00:00:03.05 bitrate=   1.5kbits/s speed=0.0206x elapsed=0:02:28.31    \nframe=  370 fps=2.5 q=60.0 size=       1KiB time=00:00:03.07 bitrate=   1.5kbits/s speed=0.0207x elapsed=0:02:28.83    \nframe=  373 fps=2.5 q=57.0 size=       1KiB time=00:00:03.10 bitrate=   1.4kbits/s speed=0.0208x elapsed=0:02:29.34    \nframe=  375 fps=2.5 q=59.0 size=       1KiB time=00:00:03.11 bitrate=   1.4kbits/s speed=0.0208x elapsed=0:02:29.86    \nframe=  378 fps=2.5 q=60.0 size=       1KiB time=00:00:03.14 bitrate=   1.4kbits/s speed=0.0209x elapsed=0:02:30.37    \nframe=  381 fps=2.5 q=57.0 size=       1KiB time=00:00:03.16 bitrate=   1.4kbits/s speed=0.021x elapsed=0:02:30.89    \nframe=  386 fps=2.5 q=60.0 size=       1KiB time=00:00:03.20 bitrate=   1.4kbits/s speed=0.0212x elapsed=0:02:31.40    \nframe=  391 fps=2.6 q=59.0 size=       1KiB time=00:00:03.25 bitrate=   1.4kbits/s speed=0.0214x elapsed=0:02:31.92    \nframe=  392 fps=2.6 q=60.0 size=       1KiB time=00:00:03.25 bitrate=   1.4kbits/s speed=0.0214x elapsed=0:02:32.43    \nframe=  397 fps=2.6 q=57.0 size=       1KiB time=00:00:03.30 bitrate=   1.4kbits/s speed=0.0216x elapsed=0:02:32.96    \nframe=  399 fps=2.6 q=59.0 size=       1KiB time=00:00:03.31 bitrate=   1.4kbits/s speed=0.0216x elapsed=0:02:33.46    \nframe=  401 fps=2.6 q=45.0 size=       1KiB time=00:00:03.33 bitrate=   1.3kbits/s speed=0.0216x elapsed=0:02:33.98    \nframe=  406 fps=2.6 q=60.0 size=       1KiB time=00:00:03.37 bitrate=   1.3kbits/s speed=0.0218x elapsed=0:02:34.50    \nframe=  407 fps=2.6 q=59.0 size=       1KiB time=00:00:03.38 bitrate=   1.3kbits/s speed=0.0218x elapsed=0:02:35.01    \nframe=  410 fps=2.6 q=60.0 size=       1KiB time=00:00:03.40 bitrate=   1.3kbits/s speed=0.0219x elapsed=0:02:35.53    \nframe=  414 fps=2.7 q=59.0 size=       1KiB time=00:00:03.44 bitrate=   1.3kbits/s speed=0.0221x elapsed=0:02:36.04    \nframe=  417 fps=2.7 q=45.0 size=       1KiB time=00:00:03.46 bitrate=   1.3kbits/s speed=0.0221x elapsed=0:02:36.55    \nframe=  420 fps=2.7 q=59.0 size=       1KiB time=00:00:03.49 bitrate=   1.3kbits/s speed=0.0222x elapsed=0:02:37.08    \nframe=  423 fps=2.7 q=58.0 size=       1KiB time=00:00:03.51 bitrate=   1.3kbits/s speed=0.0223x elapsed=0:02:37.59    \nframe=  427 fps=2.7 q=58.0 size=       1KiB time=00:00:03.55 bitrate=   1.3kbits/s speed=0.0225x elapsed=0:02:38.11    \nframe=  432 fps=2.7 q=56.0 size=       1KiB time=00:00:03.59 bitrate=   1.2kbits/s speed=0.0226x elapsed=0:02:38.63    \nframe=  434 fps=2.7 q=59.0 size=       1KiB time=00:00:03.60 bitrate=   1.2kbits/s speed=0.0227x elapsed=0:02:39.14    \nframe=  438 fps=2.7 q=59.0 size=       1KiB time=00:00:03.64 bitrate=   1.2kbits/s speed=0.0228x elapsed=0:02:39.66    \nframe=  439 fps=2.7 q=58.0 size=       1KiB time=00:00:03.65 bitrate=   1.2kbits/s speed=0.0228x elapsed=0:02:40.17    \nframe=  442 fps=2.8 q=59.0 size=       1KiB time=00:00:03.67 bitrate=   1.2kbits/s speed=0.0229x elapsed=0:02:40.68    \nframe=  444 fps=2.8 q=59.0 size=       1KiB time=00:00:03.69 bitrate=   1.2kbits/s speed=0.0229x elapsed=0:02:41.20    \nframe=  447 fps=2.8 q=58.0 size=       1KiB time=00:00:03.71 bitrate=   1.2kbits/s speed=0.023x elapsed=0:02:41.72    \nframe=  452 fps=2.8 q=59.0 size=       1KiB time=00:00:03.75 bitrate=   1.2kbits/s speed=0.0232x elapsed=0:02:42.23    \nframe=  455 fps=2.8 q=58.0 size=       1KiB time=00:00:03.78 bitrate=   1.2kbits/s speed=0.0232x elapsed=0:02:42.74    \nframe=  459 fps=2.8 q=58.0 size=       1KiB time=00:00:03.81 bitrate=   1.2kbits/s speed=0.0234x elapsed=0:02:43.26    \nframe=  461 fps=2.8 q=56.0 size=       1KiB time=00:00:03.83 bitrate=   1.2kbits/s speed=0.0234x elapsed=0:02:43.78    \nframe=  463 fps=2.8 q=58.0 size=       1KiB time=00:00:03.85 bitrate=   1.2kbits/s speed=0.0234x elapsed=0:02:44.30    \nframe=  467 fps=2.8 q=58.0 size=       1KiB time=00:00:03.88 bitrate=   1.2kbits/s speed=0.0236x elapsed=0:02:44.80    \nframe=  471 fps=2.8 q=58.0 size=       1KiB time=00:00:03.91 bitrate=   1.1kbits/s speed=0.0237x elapsed=0:02:45.33    \nframe=  474 fps=2.9 q=58.0 size=       1KiB time=00:00:03.94 bitrate=   1.1kbits/s speed=0.0238x elapsed=0:02:45.84    \nframe=  479 fps=2.9 q=56.0 size=       1KiB time=00:00:03.98 bitrate=   1.1kbits/s speed=0.0239x elapsed=0:02:46.36    \nframe=  484 fps=2.9 q=59.0 size=       1KiB time=00:00:04.02 bitrate=   1.1kbits/s speed=0.0241x elapsed=0:02:46.88    \nframe=  487 fps=2.9 q=58.0 size=       1KiB time=00:00:04.05 bitrate=   1.1kbits/s speed=0.0242x elapsed=0:02:47.39    \nframe=  490 fps=2.9 q=58.0 size=       1KiB time=00:00:04.07 bitrate=   1.1kbits/s speed=0.0243x elapsed=0:02:47.90    \nframe=  492 fps=2.9 q=58.0 size=       1KiB time=00:00:04.09 bitrate=   1.1kbits/s speed=0.0243x elapsed=0:02:48.42    \nframe=  495 fps=2.9 q=57.0 size=       1KiB time=00:00:04.11 bitrate=   1.1kbits/s speed=0.0244x elapsed=0:02:48.94    \nframe=  498 fps=2.9 q=59.0 size=       1KiB time=00:00:04.14 bitrate=   1.1kbits/s speed=0.0244x elapsed=0:02:49.44    \nframe=  502 fps=3.0 q=59.0 size=       1KiB time=00:00:04.17 bitrate=   1.1kbits/s speed=0.0246x elapsed=0:02:49.96    \nframe=  505 fps=3.0 q=53.0 size=       1KiB time=00:00:04.20 bitrate=   1.1kbits/s speed=0.0246x elapsed=0:02:50.48    \nframe=  509 fps=3.0 q=54.0 size=       1KiB time=00:00:04.23 bitrate=   1.1kbits/s speed=0.0248x elapsed=0:02:51.00    \nframe=  511 fps=3.0 q=57.0 size=       1KiB time=00:00:04.25 bitrate=   1.1kbits/s speed=0.0248x elapsed=0:02:51.52    \nframe=  513 fps=3.0 q=45.0 size=       1KiB time=00:00:04.26 bitrate=   1.0kbits/s speed=0.0248x elapsed=0:02:52.02    \nframe=  521 fps=3.0 q=53.0 size=       1KiB time=00:00:04.33 bitrate=   1.0kbits/s speed=0.0251x elapsed=0:02:52.54    \nframe=  527 fps=3.0 q=57.0 size=       1KiB time=00:00:04.36 bitrate=   1.0kbits/s speed=0.0252x elapsed=0:02:53.06    \nframe=  529 fps=3.0 q=45.0 size=       1KiB time=00:00:04.40 bitrate=   1.0kbits/s speed=0.0253x elapsed=0:02:53.62    \nframe=  535 fps=3.1 q=58.0 size=       1KiB time=00:00:04.45 bitrate=   1.0kbits/s speed=0.0256x elapsed=0:02:54.16    \nframe=  537 fps=3.1 q=53.0 size=       1KiB time=00:00:04.46 bitrate=   1.0kbits/s speed=0.0256x elapsed=0:02:54.67    \nframe=  539 fps=3.1 q=57.0 size=       1KiB time=00:00:04.48 bitrate=   1.0kbits/s speed=0.0256x elapsed=0:02:55.25    \nframe=  543 fps=3.1 q=57.0 size=       1KiB time=00:00:04.51 bitrate=   1.0kbits/s speed=0.0257x elapsed=0:02:55.80    \nframe=  549 fps=3.1 q=56.0 size=       1KiB time=00:00:04.56 bitrate=   1.0kbits/s speed=0.0259x elapsed=0:02:56.36    \nframe=  553 fps=3.1 q=53.0 size=       1KiB time=00:00:04.60 bitrate=   1.0kbits/s speed=0.026x elapsed=0:02:56.87    \nframe=  557 fps=3.1 q=54.0 size=       1KiB time=00:00:04.63 bitrate=   1.0kbits/s speed=0.0261x elapsed=0:02:57.38    \nframe=  561 fps=3.2 q=45.0 size=       1KiB time=00:00:04.66 bitrate=   1.0kbits/s speed=0.0262x elapsed=0:02:57.93    \nframe=  565 fps=3.2 q=56.0 size=       1KiB time=00:00:04.70 bitrate=   1.0kbits/s speed=0.0263x elapsed=0:02:58.54    \nframe=  569 fps=3.2 q=53.0 size=       1KiB time=00:00:04.73 bitrate=   0.9kbits/s speed=0.0264x elapsed=0:02:59.06    \nframe=  571 fps=3.2 q=55.0 size=       1KiB time=00:00:04.75 bitrate=   0.9kbits/s speed=0.0264x elapsed=0:02:59.63    \nframe=  577 fps=3.2 q=44.0 size=       1KiB time=00:00:04.80 bitrate=   0.9kbits/s speed=0.0266x elapsed=0:03:00.18    \nframe=  581 fps=3.2 q=57.0 size=       1KiB time=00:00:04.81 bitrate=   0.9kbits/s speed=0.0267x elapsed=0:03:00.68    \nframe=  585 fps=3.2 q=52.0 size=       1KiB time=00:00:04.86 bitrate=   0.9kbits/s speed=0.0268x elapsed=0:03:01.28    \nframe=  600 fps=3.3 q=59.0 size=       1KiB time=00:00:04.91 bitrate=   0.9kbits/s speed=0.027x elapsed=0:03:01.83    \n[out#0/matroska @ 0000029131f890c0] video:1557KiB audio:0KiB subtitle:0KiB other streams:0KiB global headers:0KiB muxing overhead: 0.209287%\nframe=  600 fps=3.3 q=59.0 Lsize=    1560KiB time=00:00:04.99 bitrate=2560.7kbits/s speed=0.0274x elapsed=0:03:01.98    \n",
  "seconds": 185.56747102737427,
  "probe_out": {}
}